# xmcd CD database file
#
# Track frame offsets:
#	150
#	17492
#	33715
#	52546
#	68585
#	91970
#	108884
#	134958
#	159083
#	181304
#
# Disc length: 2702 seconds
#
# Revision: 0
# Processed by: cddbd v1.5.2PL0 Copyright (c) Steve Scherf et al.
# Submitted via: CDex 1.51
#
DISCID=740a8c0a
DTITLE=Lera Lynn - Resistor
DYEAR=2016
DGENRE=Country
TTITLE0=Shape Shifter
TTITLE1=What You Done
TTITLE2=Drive
TTITLE3=Cut And Burn
TTITLE4=Run The Night
TTITLE5=For The Last Time
TTITLE6=Fade Into The Black
TTITLE7=Slow Motion Countdown
TTITLE8=Scratch And Hiss
TTITLE9=Little Ruby
EXTD=YEAR: 2016
EXTT0=
EXTT1=
EXTT2=
EXTT3=
EXTT4=
EXTT5=
EXTT6=
EXTT7=
EXTT8=
EXTT9=
PLAYORDER=
